<svg width="22" height="23" viewBox="0 0 22 23" fill="none" xmlns="http://www.w3.org/2000/svg">
<path d="M7.00007 21.5H15.0001C19.0201 21.5 19.7401 19.89 19.9501 17.93L20.7001 9.93C20.9701 7.49 20.2701 5.5 16.0001 5.5H6.00007C1.73007 5.5 1.03007 7.49 1.30007 9.93L2.05007 17.93C2.26007 19.89 2.98007 21.5 7.00007 21.5Z" stroke="#93312B" stroke-width="1.5" stroke-miterlimit="10" stroke-linecap="round" stroke-linejoin="round"/>
<path d="M7 5.5V4.7C7 2.93 7 1.5 10.2 1.5H11.8C15 1.5 15 2.93 15 4.7V5.5" stroke="#93312B" stroke-width="1.5" stroke-miterlimit="10" stroke-linecap="round" stroke-linejoin="round"/>
<path d="M13 12.5V13.5C13 13.51 13 13.51 13 13.52C13 14.61 12.99 15.5 11 15.5C9.02 15.5 9 14.62 9 13.53V12.5C9 11.5 9 11.5 10 11.5H12C13 11.5 13 11.5 13 12.5Z" stroke="#93312B" stroke-width="1.5" stroke-miterlimit="10" stroke-linecap="round" stroke-linejoin="round"/>
<path d="M20.65 10.5C18.34 12.18 15.7 13.18 13 13.52" stroke="#93312B" stroke-width="1.5" stroke-miterlimit="10" stroke-linecap="round" stroke-linejoin="round"/>
<path d="M1.62012 10.77C3.87012 12.31 6.41012 13.24 9.00012 13.53" stroke="#93312B" stroke-width="1.5" stroke-miterlimit="10" stroke-linecap="round" stroke-linejoin="round"/>
</svg>
