<svg width="18" height="18" viewBox="0 0 18 18" fill="none" xmlns="http://www.w3.org/2000/svg">
<path d="M5.66673 17.3231H12.3334C15.6834 17.3231 16.2834 15.9814 16.4584 14.3481L17.0834 7.68141C17.3084 5.64808 16.7251 3.98975 13.1667 3.98975H4.83339C1.27506 3.98975 0.691726 5.64808 0.916726 7.68141L1.54173 14.3481C1.71673 15.9814 2.31673 17.3231 5.66673 17.3231Z" stroke="#6B788E" stroke-width="1.2" stroke-miterlimit="10" stroke-linecap="round" stroke-linejoin="round"/>
<path d="M5.66663 3.98974V3.32307C5.66663 1.84807 5.66663 0.656403 8.33329 0.656403H9.66663C12.3333 0.656403 12.3333 1.84807 12.3333 3.32307V3.98974" stroke="#6B788E" stroke-width="1.2" stroke-miterlimit="10" stroke-linecap="round" stroke-linejoin="round"/>
<path d="M10.6667 9.82308V10.6564C10.6667 10.6647 10.6667 10.6647 10.6667 10.6731C10.6667 11.5814 10.6584 12.3231 9.00004 12.3231C7.35004 12.3231 7.33337 11.5897 7.33337 10.6814V9.82308C7.33337 8.98975 7.33337 8.98975 8.16671 8.98975H9.83337C10.6667 8.98975 10.6667 8.98975 10.6667 9.82308Z" stroke="#6B788E" stroke-width="1.2" stroke-miterlimit="10" stroke-linecap="round" stroke-linejoin="round"/>
<path d="M17.0416 8.1564C15.1166 9.5564 12.9166 10.3897 10.6666 10.6731" stroke="#6B788E" stroke-width="1.2" stroke-miterlimit="10" stroke-linecap="round" stroke-linejoin="round"/>
<path d="M1.18335 8.38141C3.05835 9.66474 5.17502 10.4397 7.33335 10.6814" stroke="#6B788E" stroke-width="1.2" stroke-miterlimit="10" stroke-linecap="round" stroke-linejoin="round"/>
</svg>
