<svg width="208" height="69" viewBox="0 0 208 69" fill="none" xmlns="http://www.w3.org/2000/svg">
<g clip-path="url(#clip0_1414_1091)">
<rect opacity="0.5" x="0.5" y="16.4897" width="208" height="1" fill="#E6E7EC"/>
</g>
<path fill-rule="evenodd" clip-rule="evenodd" d="M18.3334 52.289C18.3334 52.5582 18.1094 52.7767 17.8335 52.7767C17.5575 52.7767 17.3335 52.5582 17.3335 52.289V47.466C17.3335 45.9168 18.6256 44.6564 20.2144 44.6564H23.3784C24.9704 44.6564 26.2657 45.92 26.2657 47.4729V48.0626C26.2657 48.3311 26.0417 48.5497 25.7658 48.5497C25.4898 48.5497 25.2658 48.3311 25.2658 48.0626V47.4729C25.2658 46.457 24.4192 45.6318 23.3784 45.6318H20.2144C19.1769 45.6318 18.3334 46.4551 18.3334 47.466V52.289ZM25.2657 53.9175C25.2657 53.6483 25.4897 53.4298 25.7656 53.4298C26.0415 53.4298 26.2655 53.6483 26.2655 53.9175V54.5135C26.2655 56.0627 24.9735 57.3231 23.3847 57.3231H20.2201C18.6287 57.3231 17.3333 56.0595 17.3333 54.5065C17.3333 54.2373 17.5573 54.0195 17.8333 54.0195C18.1092 54.0195 18.3332 54.2373 18.3332 54.5065C18.3332 55.5224 19.1799 56.3477 20.2201 56.3477H23.3847C24.4222 56.3477 25.2657 55.525 25.2657 54.5135V53.9175ZM30.6289 50.8037C30.5516 50.6206 30.3692 50.5015 30.1666 50.5015H22.3661C22.0901 50.5015 21.8655 50.7207 21.8655 50.9899C21.8655 51.259 22.0901 51.4775 22.3661 51.4775H28.9563L27.9168 52.4871C27.7207 52.6771 27.7207 52.9856 27.9155 53.1769C28.0129 53.2725 28.1415 53.3206 28.2694 53.3206C28.3973 53.3206 28.5245 53.2725 28.6226 53.1781L30.5198 51.3357C30.6626 51.1963 30.7061 50.9861 30.6289 50.8037ZM28.7479 50.0969C28.6206 50.0969 28.4934 50.0494 28.396 49.9557L27.9175 49.4939C27.7214 49.3046 27.7201 48.9955 27.9142 48.8048C28.109 48.6123 28.4245 48.611 28.6213 48.801L29.0992 49.2621C29.2959 49.4521 29.2972 49.7606 29.1031 49.9519C29.005 50.0481 28.8765 50.0969 28.7479 50.0969Z" fill="#091E42"/>
<path d="M45.1449 55.9897V46.5352H46.2898V54.9741H50.6847V55.9897H45.1449ZM55.1903 56.1375C54.5502 56.1375 53.9885 55.9851 53.5053 55.6804C53.0252 55.3758 52.6497 54.9495 52.3789 54.4017C52.1112 53.8539 51.9773 53.2137 51.9773 52.4812C51.9773 51.7426 52.1112 51.0978 52.3789 50.5469C52.6497 49.996 53.0252 49.5682 53.5053 49.2635C53.9885 48.9589 54.5502 48.8065 55.1903 48.8065C55.8305 48.8065 56.3906 48.9589 56.8707 49.2635C57.3539 49.5682 57.7294 49.996 57.9972 50.5469C58.268 51.0978 58.4034 51.7426 58.4034 52.4812C58.4034 53.2137 58.268 53.8539 57.9972 54.4017C57.7294 54.9495 57.3539 55.3758 56.8707 55.6804C56.3906 55.9851 55.8305 56.1375 55.1903 56.1375ZM55.1903 55.1588C55.6766 55.1588 56.0767 55.0341 56.3906 54.7848C56.7045 54.5356 56.9369 54.2078 57.0877 53.8015C57.2385 53.3953 57.3139 52.9552 57.3139 52.4812C57.3139 52.0073 57.2385 51.5656 57.0877 51.1563C56.9369 50.747 56.7045 50.4161 56.3906 50.1638C56.0767 49.9114 55.6766 49.7852 55.1903 49.7852C54.7041 49.7852 54.304 49.9114 53.9901 50.1638C53.6761 50.4161 53.4438 50.747 53.293 51.1563C53.1422 51.5656 53.0668 52.0073 53.0668 52.4812C53.0668 52.9552 53.1422 53.3953 53.293 53.8015C53.4438 54.2078 53.6761 54.5356 53.9901 54.7848C54.304 55.0341 54.7041 55.1588 55.1903 55.1588ZM62.9287 58.7966C62.4024 58.7966 61.95 58.7289 61.5715 58.5934C61.1929 58.4611 60.8775 58.2857 60.6251 58.0672C60.3758 57.8517 60.1773 57.6209 60.0296 57.3747L60.8975 56.7653C60.9959 56.8946 61.1206 57.0423 61.2714 57.2085C61.4222 57.3778 61.6284 57.524 61.89 57.6471C62.1547 57.7732 62.5009 57.8363 62.9287 57.8363C63.5012 57.8363 63.9736 57.6978 64.346 57.4209C64.7184 57.1439 64.9046 56.7099 64.9046 56.119V54.6787H64.8122C64.7322 54.8079 64.6183 54.968 64.4706 55.1588C64.326 55.3465 64.1167 55.5142 63.8428 55.662C63.5719 55.8066 63.2057 55.879 62.7441 55.879C62.1716 55.879 61.6576 55.7435 61.2021 55.4727C60.7497 55.2019 60.3912 54.8079 60.1265 54.2909C59.8649 53.7738 59.7341 53.146 59.7341 52.4074C59.7341 51.681 59.8618 51.0486 60.1173 50.51C60.3727 49.9683 60.7282 49.5498 61.1837 49.2543C61.6392 48.9558 62.1655 48.8065 62.7625 48.8065C63.2242 48.8065 63.5904 48.8834 63.8612 49.0373C64.1352 49.1881 64.3444 49.3605 64.4891 49.5544C64.6368 49.7452 64.7507 49.9022 64.8307 50.0253H64.9415V48.8988H65.9941V56.1929C65.9941 56.8022 65.8556 57.2977 65.5786 57.6794C65.3047 58.0641 64.9353 58.3457 64.4706 58.5242C64.009 58.7058 63.495 58.7966 62.9287 58.7966ZM62.8918 54.9003C63.3288 54.9003 63.6981 54.8002 63.9997 54.6002C64.3013 54.4001 64.5306 54.1124 64.6876 53.7369C64.8445 53.3614 64.923 52.9121 64.923 52.3889C64.923 51.878 64.8461 51.4271 64.6922 51.0363C64.5383 50.6454 64.3106 50.3392 64.009 50.1176C63.7074 49.896 63.335 49.7852 62.8918 49.7852C62.4301 49.7852 62.0454 49.9022 61.7377 50.1361C61.433 50.37 61.2037 50.6839 61.0498 51.0778C60.899 51.4718 60.8236 51.9088 60.8236 52.3889C60.8236 52.8813 60.9005 53.3168 61.0544 53.6954C61.2114 54.0708 61.4422 54.3663 61.7469 54.5817C62.0547 54.7941 62.4363 54.9003 62.8918 54.9003ZM74.5253 56.1375C73.8852 56.1375 73.3235 55.9851 72.8403 55.6804C72.3602 55.3758 71.9847 54.9495 71.7139 54.4017C71.4461 53.8539 71.3122 53.2137 71.3122 52.4812C71.3122 51.7426 71.4461 51.0978 71.7139 50.5469C71.9847 49.996 72.3602 49.5682 72.8403 49.2635C73.3235 48.9589 73.8852 48.8065 74.5253 48.8065C75.1655 48.8065 75.7256 48.9589 76.2057 49.2635C76.6889 49.5682 77.0644 49.996 77.3321 50.5469C77.603 51.0978 77.7384 51.7426 77.7384 52.4812C77.7384 53.2137 77.603 53.8539 77.3321 54.4017C77.0644 54.9495 76.6889 55.3758 76.2057 55.6804C75.7256 55.9851 75.1655 56.1375 74.5253 56.1375ZM74.5253 55.1588C75.0116 55.1588 75.4117 55.0341 75.7256 54.7848C76.0395 54.5356 76.2719 54.2078 76.4227 53.8015C76.5735 53.3953 76.6489 52.9552 76.6489 52.4812C76.6489 52.0073 76.5735 51.5656 76.4227 51.1563C76.2719 50.747 76.0395 50.4161 75.7256 50.1638C75.4117 49.9114 75.0116 49.7852 74.5253 49.7852C74.039 49.7852 73.6389 49.9114 73.325 50.1638C73.0111 50.4161 72.7787 50.747 72.6279 51.1563C72.4771 51.5656 72.4017 52.0073 72.4017 52.4812C72.4017 52.9552 72.4771 53.3953 72.6279 53.8015C72.7787 54.2078 73.0111 54.5356 73.325 54.7848C73.6389 55.0341 74.039 55.1588 74.5253 55.1588ZM83.8702 53.0906V48.8988H84.9597V55.9897H83.8702V54.7895H83.7963C83.6301 55.1495 83.3716 55.4558 83.0208 55.7081C82.6699 55.9574 82.2267 56.0821 81.6912 56.0821C81.248 56.0821 80.8541 55.9851 80.5094 55.7912C80.1647 55.5943 79.8939 55.2988 79.6969 54.9049C79.4999 54.5079 79.4015 54.0077 79.4015 53.4045V48.8988H80.4909V53.3307C80.4909 53.8477 80.6356 54.2601 80.9249 54.5679C81.2173 54.8756 81.5897 55.0295 82.0421 55.0295C82.3129 55.0295 82.5884 54.9603 82.8684 54.8218C83.1516 54.6833 83.3886 54.4709 83.5794 54.1847C83.7733 53.8985 83.8702 53.5338 83.8702 53.0906ZM90.039 48.8988V49.8221H86.3643V48.8988H90.039ZM87.4353 47.2H88.5248V53.9585C88.5248 54.2663 88.5694 54.4971 88.6586 54.651C88.751 54.8018 88.8679 54.9033 89.0095 54.9557C89.1541 55.0049 89.3065 55.0295 89.4665 55.0295C89.5866 55.0295 89.685 55.0234 89.762 55.0111C89.8389 54.9957 89.9005 54.9834 89.9466 54.9741L90.1682 55.9528C90.0944 55.9805 89.9913 56.0082 89.8589 56.0359C89.7266 56.0667 89.5589 56.0821 89.3557 56.0821C89.048 56.0821 88.7464 56.0159 88.4509 55.8836C88.1585 55.7512 87.9154 55.5496 87.7215 55.2788C87.5307 55.008 87.4353 54.6664 87.4353 54.254V47.2Z" fill="#091E42"/>
<defs>
<clipPath id="clip0_1414_1091">
<rect width="208" height="32" fill="white" transform="translate(0 0.989746)"/>
</clipPath>
</defs>
</svg>
