<svg width="19" height="18" viewBox="0 0 19 18" fill="none" xmlns="http://www.w3.org/2000/svg">
<path d="M17.4167 4.23974V6.15557C17.4167 7.40641 16.625 8.19807 15.3742 8.19807H12.6667V2.66432C12.6667 1.78557 13.3871 1.07307 14.2658 1.07307C15.1287 1.08099 15.9204 1.42932 16.4904 1.99932C17.0604 2.57724 17.4167 3.36891 17.4167 4.23974Z" stroke="#6B788E" stroke-width="1.2" stroke-miterlimit="10" stroke-linecap="round" stroke-linejoin="round"/>
<path d="M1.58334 5.03141V16.1147C1.58334 16.7718 2.32751 17.1439 2.85001 16.7481L4.20376 15.7347C4.52043 15.4972 4.96376 15.5289 5.24876 15.8139L6.56293 17.136C6.87168 17.4447 7.37834 17.4447 7.68709 17.136L9.01709 15.806C9.29418 15.5289 9.73751 15.4972 10.0463 15.7347L11.4 16.7481C11.9225 17.136 12.6667 16.7639 12.6667 16.1147V2.65641C12.6667 1.78557 13.3792 1.07307 14.25 1.07307H5.54168H4.75001C2.37501 1.07307 1.58334 2.49016 1.58334 4.23974V5.03141Z" stroke="#6B788E" stroke-width="1.2" stroke-miterlimit="10" stroke-linecap="round" stroke-linejoin="round"/>
<path d="M7.125 9.78932H9.5" stroke="#6B788E" stroke-width="1.2" stroke-linecap="round" stroke-linejoin="round"/>
<path d="M7.125 6.62267H9.5" stroke="#6B788E" stroke-width="1.2" stroke-linecap="round" stroke-linejoin="round"/>
<path d="M4.74652 9.78142H4.75363" stroke="#6B788E" stroke-width="1.2" stroke-linecap="round" stroke-linejoin="round"/>
<path d="M4.74652 6.61475H4.75363" stroke="#6B788E" stroke-width="1.2" stroke-linecap="round" stroke-linejoin="round"/>
</svg>
