<svg width="16" height="16" viewBox="0 0 16 16" fill="none" xmlns="http://www.w3.org/2000/svg">
<path d="M5.33332 14.6564H10.6667C13.3467 14.6564 13.8267 13.5831 13.9667 12.2764L14.4667 6.94308C14.6467 5.31641 14.18 3.98975 11.3333 3.98975H4.66665C1.81999 3.98975 1.35332 5.31641 1.53332 6.94308L2.03332 12.2764C2.17332 13.5831 2.65332 14.6564 5.33332 14.6564Z" stroke="#FAFBFB" stroke-width="1.5" stroke-miterlimit="10" stroke-linecap="round" stroke-linejoin="round"/>
<path d="M5.33334 3.98976V3.45642C5.33334 2.27642 5.33334 1.32309 7.46668 1.32309H8.53334C10.6667 1.32309 10.6667 2.27642 10.6667 3.45642V3.98976" stroke="#FAFBFB" stroke-width="1.5" stroke-miterlimit="10" stroke-linecap="round" stroke-linejoin="round"/>
<path d="M9.33332 8.65641V9.32308C9.33332 9.32975 9.33332 9.32975 9.33332 9.33641C9.33332 10.0631 9.32666 10.6564 7.99999 10.6564C6.67999 10.6564 6.66666 10.0697 6.66666 9.34308V8.65641C6.66666 7.98975 6.66666 7.98975 7.33332 7.98975H8.66666C9.33332 7.98975 9.33332 7.98975 9.33332 8.65641Z" stroke="#FAFBFB" stroke-width="1.5" stroke-miterlimit="10" stroke-linecap="round" stroke-linejoin="round"/>
<path d="M14.4333 7.32309C12.8933 8.44309 11.1333 9.10976 9.33334 9.33642" stroke="#FAFBFB" stroke-width="1.5" stroke-miterlimit="10" stroke-linecap="round" stroke-linejoin="round"/>
<path d="M1.74667 7.50308C3.24667 8.52975 4.94001 9.14975 6.66667 9.34308" stroke="#FAFBFB" stroke-width="1.5" stroke-miterlimit="10" stroke-linecap="round" stroke-linejoin="round"/>
</svg>
