<svg width="20" height="19" viewBox="0 0 20 19" fill="none" xmlns="http://www.w3.org/2000/svg">
<path d="M18.3333 6.60001V2.81667C18.3333 1.64167 17.8 1.16667 16.475 1.16667H13.1083C11.7833 1.16667 11.25 1.64167 11.25 2.81667V6.59167C11.25 7.77501 11.7833 8.24167 13.1083 8.24167H16.475C17.8 8.25 18.3333 7.77501 18.3333 6.60001Z" stroke="#858585" stroke-width="1.5" stroke-linecap="round" stroke-linejoin="round"/>
<path d="M18.3333 15.975V12.6083C18.3333 11.2833 17.8 10.75 16.475 10.75H13.1083C11.7833 10.75 11.25 11.2833 11.25 12.6083V15.975C11.25 17.3 11.7833 17.8333 13.1083 17.8333H16.475C17.8 17.8333 18.3333 17.3 18.3333 15.975Z" stroke="#858585" stroke-width="1.5" stroke-linecap="round" stroke-linejoin="round"/>
<path d="M8.74996 6.60001V2.81667C8.74996 1.64167 8.21663 1.16667 6.89163 1.16667H3.52496C2.19996 1.16667 1.66663 1.64167 1.66663 2.81667V6.59167C1.66663 7.77501 2.19996 8.24167 3.52496 8.24167H6.89163C8.21663 8.25 8.74996 7.77501 8.74996 6.60001Z" stroke="#858585" stroke-width="1.5" stroke-linecap="round" stroke-linejoin="round"/>
<path d="M8.74996 15.975V12.6083C8.74996 11.2833 8.21663 10.75 6.89163 10.75H3.52496C2.19996 10.75 1.66663 11.2833 1.66663 12.6083V15.975C1.66663 17.3 2.19996 17.8333 3.52496 17.8333H6.89163C8.21663 17.8333 8.74996 17.3 8.74996 15.975Z" stroke="#858585" stroke-width="1.5" stroke-linecap="round" stroke-linejoin="round"/>
</svg>
